<?xml version="1.0" encoding="utf-8"?>
<svg version="1.1" xmlns="http://www.w3.org/2000/svg" xmlns:xlink="http://www.w3.org/1999/xlink" x="0px" y="0px"
	 viewBox="0 0 595 842" style="enable-background:new 0 0 595 842;" xml:space="preserve">
<g>
	<path class="st0" d="M301.2,399.6c0,0,28.6,32.4,57.8,44c30.1,12.1,49.2,15.6,49.2,35.9c0,17.9-15.6,29.7-41.8,29.7
		c-18.4,0-36.2-3.4-60.3-15.5l-9.1-27.8c-6.8-21-11.7-36.6-31.2-44.3C294.8,409.8,301.2,399.6,301.2,399.6z"/>
	<path class="st0" d="M464.5,291.7"/>
	<path class="st0" d="M462.6,290.1"/>
	<path class="st0" d="M463.5,289.6l-5,55.8c-19.8-9.4-38.2-14-55.7-14c-27.3,0-42.1,10.1-42.1,26.1c0,11.3,7.4,19.9,22.7,25.3
		c28,10.2,51,17.2,67,30.5c17.4,14.7,25.1,33,25.1,58.4c0,58.8-36.1,91.7-105.2,91.7c-23.8,0-35.8,0.1-61.2-7.8H258l-21.6-74.2
		c-7.4-25.2-18.4-31.5-42.2-31.5h-9.6v105.7h-64.1V285c1.2-0.3,2.3-0.6,3.5-1c0.2-0.1,0.6-0.7,0.5-0.9c-0.5-1.2,0.4-1.8,0.9-2.8
		c0.7-1.1,0.8-2.6,1.2-3.9c0.1-0.5,0.4-1,0.5-1.5c0.2-1,0.5-2.1,0.7-3.1c0.1-0.5,0.3-1.1,0.4-1.6c0.1,0,0.3,0,0.4,0.1
		c0.5,2.6,1,5.1,1.5,7.7c1.3-1.9,1.2-4.2,2-6.4c0.2,1.3,0.4,2.5,0.6,3.8c0.1,0.6-0.1,1.5,0.2,1.8c1.7,1.2,1.4,3.2,2.3,4.7
		c0.3,0.6,0.3,1.4,0.5,2.5c2.1-1.4,4.9,0,6.9-1.5c1.1,0.1,2.3,0.3,3.7,0.5c-0.3-0.7-0.4-1-0.6-1.5c0.7-0.2,1.5-0.7,1.6,0.7
		c0,0.2,0.9,0.4,1.3,0.4c3.7-0.4,7.4-1.1,11.1-1.3c4.8-0.3,9.6-0.2,14.4-0.3c0.7,0,1.5,0.3,1.7-0.9c0-0.1,1.5-0.2,1.6,0
		c0.4,1.2,1.3,0.9,2.1,0.9c3.1,0,6.2,0,9.2,0c0.7,0,1.5-0.4,2.2-0.6c0.2-0.1,0.5-0.2,0.6-0.1c1.9,1.3,3.8,0.3,5.7,0.2
		c0.7-0.1,1.4,0.2,2.1,0.3c0.4-5.1,0.7-10.1,1.2-15c0.3-2.9,0.7-5.8,1.7-8.5c1.7-4.5,1.7-9.1,2.5-13.7c0-0.1,0.1-0.2,0.4-0.4
		c0.2,2,0.5,3.9,0.7,5.7c0.3,2.1,0.2,4.4,1,6.2c0.8,1.8,1.3,3.7,2.1,5.7c1.9-1.2,2.3-3.2,2.7-5c0.6-3.3,0.9-6.7,1.3-10.1
		c0-0.2,0.2-0.3,0.2-0.5c1.4,7.1,2.7,14.2,4.1,21.5c1.1-0.1,1.8-0.2,2.5-0.3c0.6-4.9,1.1-9.7,1.7-14.5c0.2,0,0.4,0,0.7,0
		c0.3,1.6,0.7,3.2,1.1,5.3c0.5-1,1.3-2,1.1-2.5c-0.7-1.6,0.6-2.3,1-3.5c0.2-0.5,0.6-0.9,0.6-1.3c-0.2-3,1-5.7,1.3-8.6
		c0.3-2.9,0.7-5.8,1.2-9c0.3,0.4,0.5,0.6,0.5,0.8c0.1,0.9,0,1.9,0.1,2.8c0.2,2.2,0.5,4.4,0.9,6.7c0.1,0.8,0.6,1.5,0.7,2.2
		c0.2,1.6,0.2,3.2,0.5,4.8c0.1,0.5,0.4,1.1,0.7,1.5c0.6,0.9,1.3,1.6,0.8,2.9c-0.2,0.7,0.5,1.7,0.9,2.9c0.5-1.9,0.9-3.4,1.2-4.8
		c0.2,0,0.4,0,0.6,0c0.4,4.1,0.8,8.1,1.2,11.9c0.4-0.1,1-0.3,1.5-0.3c1.7,0.2,3.4,0.5,5,0.8c0.7-6.3,1.4-12.5,2.1-18.7
		c0.1,0,0.2,0,0.2,0c0.7,6.4,1.3,12.7,2,19.4c1.5-0.3,3-1.2,4.3-0.9c1.8,0.5,3.4,0.2,5.1,0.1c6-0.2,12-0.6,18.1-0.9
		c0.5,0,1.3,0.6,1.5,1.1c1.1,2.3,2.1,4.8,3.3,7.3c0.1-0.4,0.2-0.7,0.3-1c0.1,0,0.1,0,0.2,0c0,0.7,0,1.5,0,2.5c0.5-1.1,0.9-1.9,1.4-3
		c1,2.5-0.8,5.4,1.9,7.5c0.2-1.1,0.4-1.9,0.6-3c0.3,1.4,0.5,2.5,0.7,3.6c0.1,0,0.2,0,0.3,0c0.1-1.3,0.3-2.6,0.4-3.9
		c0.1,0,0.2,0,0.3,0c0.3,1.4,0.6,2.8,0.9,4.2c0.1-0.5,0.1-1.1,0.2-1.8c0.3,0.2,0.5,0.3,0.7,0.4c0.1-0.3,0.2-0.6,0.4-1.2
		c0.1,1.3,0.2,2.1,0.3,3c0.1,0,0.2,0,0.2,0c0.2-1.2,0.3-2.4,0.5-3.6c0.1,0,0.3,0,0.4,0c0.1,1.2,0.1,2.4,0.2,3.8
		c3.6-0.2,7.2-0.3,10.7-0.5c1.2,2.3,2.1,2.4,5.5,2.1c4.8-0.4,9.6-0.5,14.4-0.6c0.4,0,0.8,0.5,1.1,0.8c1.5,2.1,3,4.3,4.6,6.4
		c0.5,0.7,1.4,1.2,2.3,1.6c0.5,0.2,1.5,0.1,1.7-0.2c0.7-1.3,1.1-1,1.7,0c0,0.1,0.9-0.2,1.3-0.4c0.4-0.2,0.7-0.6,1.2-1
		c0.2-0.5,0.4-1.4,0.7-2.2c0.2,0,0.4,0,0.6,0c0.3,0.9,0.5,1.8,0.8,2.8c1.5,0,3.2,0,4.8,0c0.1,0,0.1,0,0.2,0c3.7-0.6,7.4,0,11.1-0.4
		c0.5-0.1,1.1-0.8,1.3-1.3c0.3-1,0.4-2.1,0.3-3.1c-0.2-2.5,0.3-4.7,1.3-7c1-2.4,1.4-5.1,2.1-7.7c0.9,3.2,1.8,6.5,2.7,9.7
		c1.3,0.2,1.7-0.4,1.7-1.4c0.2-2.2,0.4-4.5,0.8-6.7c0.5,2.2,0.8,4.4,1.6,6.5c1.1,3,1.5,6.1,1.4,9.3c0,1.1,0.4,1.5,1.5,1.5
		c1.4,0.1,2.8,0.4,4.2,0.4c0.4,0,0.9-0.4,1.4-0.6c1.3,1.4,2.7,1,4,0c1.6,1,4,0.9,5.2-0.2c1.3,1.3,8.9,1.2,10,0
		c0.8,0.3,1.4,0.7,2,0.7c1.4-0.1,2.8-0.4,4.2-0.6c0.4,0,0.8,0,1.1,0.1c0.4,0.1,0.7,0.4,1.1,0.3c3.5-0.4,6.9,0.3,10.4,0
		c0.6-0.1,1.2-0.4,1.7-0.6c1,0.2,1.9,0.5,2.8,0.5c7.6-0.1,15.2-0.3,22.8-0.5c4-0.1,7.9-0.3,11.9-0.3L463.5,289.6z"/>
	<path class="st0" d="M310.8,495.7"/>
</g>
<rect x="287.1" y="332.3" class="st0" width="35.1" height="57.2"/>
<path class="st1" d="M184.7,332.6H201c33.3,0,49.2,10.5,49.2,35.4c0,22.6-14.2,33.9-42.6,33.9h-23V332.6z"/>
</svg>
