<svg viewBox="0 0 356 332" version="1.1" xmlns="http://www.w3.org/2000/svg" xmlns:xlink="http://www.w3.org/1999/xlink">
	<g stroke="none" stroke-width="1" fill-rule="evenodd">
	  <path d="M343.5,57.6 L338.5,113.4 C318.7,104 300.3,99.4 282.8,99.4 C255.5,99.4 240.7,109.5 240.7,125.5 C240.7,136.8 248.1,145.4 263.4,150.8 C291.4,161 314.4,168 330.4,181.3 C347.8,196 355.5,214.3 355.5,239.7 C355.5,298.5 319.4,331.4 250.3,331.4 C226.5,331.4 214.5,331.5 189.1,323.6 L138,323.6 L116.4,249.4 C109,224.2 98,217.9 74.2,217.9 L64.6,217.9 L64.6,323.6 L0.5,323.6 L0.5,53 C1.7,52.7 2.8,52.4 4,52 C4.2,51.9 4.6,51.3 4.5,51.1 C4,49.9 4.9,49.3 5.4,48.3 C6.1,47.2 6.2,45.7 6.6,44.4 C6.7,43.9 7,43.4 7.1,42.9 C7.3,41.9 7.6,40.8 7.8,39.8 C7.9,39.3 8.1,38.7 8.2,38.2 C8.3,38.2 8.5,38.2 8.6,38.3 C9.1,40.9 9.6,43.4 10.1,46 C11.4,44.1 11.3,41.8 12.1,39.6 C12.3,40.9 12.5,42.1 12.7,43.4 C12.8,44 12.6,44.9 12.9,45.2 C14.6,46.4 14.3,48.4 15.2,49.9 C15.5,50.5 15.5,51.3 15.7,52.4 C17.8,51 20.6,52.4 22.6,50.9 C23.7,51 24.9,51.2 26.3,51.4 C26,50.7 25.9,50.4 25.7,49.9 C26.4,49.7 27.2,49.2 27.3,50.6 C27.3,50.8 28.2,51 28.6,51 C32.3,50.6 36,49.9 39.7,49.7 C44.5,49.4 49.3,49.5 54.1,49.4 C54.8,49.4 55.6,49.7 55.8,48.5 C55.8,48.4 57.3,48.3 57.4,48.5 C57.8,49.7 58.7,49.4 59.5,49.4 L68.7,49.4 C69.4,49.4 70.2,49 70.9,48.8 C71.1,48.7 71.4,48.6 71.5,48.7 C73.4,50 75.3,49 77.2,48.9 C77.9,48.8 78.6,49.1 79.3,49.2 C79.7,44.1 80,39.1 80.5,34.2 C80.8,31.3 81.2,28.4 82.2,25.7 C83.9,21.2 83.9,16.6 84.7,12 C84.7,11.9 84.8,11.8 85.1,11.6 C85.3,13.6 85.6,15.5 85.8,17.3 C86.1,19.4 86,21.7 86.8,23.5 C87.6,25.3 88.1,27.2 88.9,29.2 C90.8,28 91.2,26 91.6,24.2 C92.2,20.9 92.5,17.5 92.9,14.1 C92.9,13.9 93.1,13.8 93.1,13.6 C94.5,20.7 95.8,27.8 97.2,35.1 C98.3,35 99,34.9 99.7,34.8 C100.3,29.9 100.8,25.1 101.4,20.3 L102.1,20.3 C102.4,21.9 102.8,23.5 103.2,25.6 C103.7,24.6 104.5,23.6 104.3,23.1 C103.6,21.5 104.9,20.8 105.3,19.6 C105.5,19.1 105.9,18.7 105.9,18.3 C105.7,15.3 106.9,12.6 107.2,9.7 C107.5,6.8 107.9,3.9 108.4,0.7 C108.7,1.1 108.9,1.3 108.9,1.5 C109,2.4 108.9,3.4 109,4.3 C109.2,6.5 109.5,8.7 109.9,11 C110,11.8 110.5,12.5 110.6,13.2 C110.8,14.8 110.8,16.4 111.1,18 C111.2,18.5 111.5,19.1 111.8,19.5 C112.4,20.4 113.1,21.1 112.6,22.4 C112.4,23.1 113.1,24.1 113.5,25.3 C114,23.4 114.4,21.9 114.7,20.5 L115.3,20.5 C115.7,24.6 116.1,28.6 116.5,32.4 C116.9,32.3 117.5,32.1 118,32.1 C119.7,32.3 121.4,32.6 123,32.9 C123.7,26.6 124.4,20.4 125.1,14.2 L125.3,14.2 C126,20.6 126.6,26.9 127.3,33.6 C128.8,33.3 130.3,32.4 131.6,32.7 C133.4,33.2 135,32.9 136.7,32.8 C142.7,32.6 148.7,32.2 154.8,31.9 C155.3,31.9 156.1,32.5 156.3,33 C157.4,35.3 158.4,37.8 159.6,40.3 C159.7,39.9 159.8,39.6 159.9,39.3 L160.1,39.3 L160.1,41.8 C160.6,40.7 161,39.9 161.5,38.8 C162.5,41.3 160.7,44.2 163.4,46.3 C163.6,45.2 163.8,44.4 164,43.3 C164.3,44.7 164.5,45.8 164.7,46.9 L165,46.9 C165.1,45.6 165.3,44.3 165.4,43 L165.7,43 C166,44.4 166.3,45.8 166.6,47.2 C166.7,46.7 166.7,46.1 166.8,45.4 C167.1,45.6 167.3,45.7 167.5,45.8 C167.6,45.5 167.7,45.2 167.9,44.6 C168,45.9 168.1,46.7 168.2,47.6 L168.4,47.6 C168.6,46.4 168.7,45.2 168.9,44 L169.3,44 C169.4,45.2 169.4,46.4 169.5,47.8 C173.1,47.6 176.7,47.5 180.2,47.3 C181.4,49.6 182.3,49.7 185.7,49.4 C190.5,49 195.3,48.9 200.1,48.8 C200.5,48.8 200.9,49.3 201.2,49.6 C202.7,51.7 204.2,53.9 205.8,56 C206.3,56.7 207.2,57.2 208.1,57.6 C208.6,57.8 209.6,57.7 209.8,57.4 C210.5,56.1 210.9,56.4 211.5,57.4 C211.5,57.5 212.4,57.2 212.8,57 C213.2,56.8 213.5,56.4 214,56 C214.2,55.5 214.4,54.6 214.7,53.8 L215.3,53.8 C215.6,54.7 215.8,55.6 216.1,56.6 L220.9,56.6 L221.1,56.6 C224.8,56 228.5,56.6 232.2,56.2 C232.7,56.1 233.3,55.4 233.5,54.9 C233.8,53.9 233.9,52.8 233.8,51.8 C233.6,49.3 234.1,47.1 235.1,44.8 C236.1,42.4 236.5,39.7 237.2,37.1 C238.1,40.3 239,43.6 239.9,46.8 C241.2,47 241.6,46.4 241.6,45.4 C241.8,43.2 242,40.9 242.4,38.7 C242.9,40.9 243.2,43.1 244,45.2 C245.1,48.2 245.5,51.3 245.4,54.5 C245.4,55.6 245.8,56 246.9,56 C248.3,56.1 249.7,56.4 251.1,56.4 C251.5,56.4 252,56 252.5,55.8 C253.8,57.2 255.2,56.8 256.5,55.8 C258.1,56.8 260.5,56.7 261.7,55.6 C263,56.9 270.6,56.8 271.7,55.6 C272.5,55.9 273.1,56.3 273.7,56.3 C275.1,56.2 276.5,55.9 277.9,55.7 C278.3,55.7 278.7,55.7 279,55.8 C279.4,55.9 279.7,56.2 280.1,56.1 C283.6,55.7 287,56.4 290.5,56.1 C291.1,56 291.7,55.7 292.2,55.5 C293.2,55.7 294.1,56 295,56 C302.6,55.9 310.2,55.7 317.8,55.5 C321.8,55.4 325.7,55.2 329.7,55.2 L343.5,57.6 Z" fill="#000000"></path>
	  <path d="M64.7,100.6 L81,100.6 C114.3,100.6 130.2,111.1 130.2,136 C130.2,158.6 116,169.9 87.6,169.9 L64.6,169.9 L64.6,100.6 L64.7,100.6 Z" fill="#FFFFFF"></path>
	  <path d="M181.2,167.6 C181.2,167.6 209.8,200 239,211.6 C269.1,223.7 288.2,227.2 288.2,247.5 C288.2,265.4 272.6,277.2 246.4,277.2 C228,277.2 210.2,273.8 186.1,261.7 L177,233.9 C170.2,212.9 165.3,197.3 145.8,189.6 C174.8,177.8 181.2,167.6 181.2,167.6 Z" fill="#FFFFFF"></path>
	  <rect fill="#FFFFFF" x="167.1" y="100.3" width="35.1" height="57.2"></rect>
	</g>
</svg>
